# xmcd CD database file
#
# Track frame offsets:
#	150
#	80369
#	133998
#
# Disc length: 2557 seconds
#
# Revision: 3
# Processed by: cddbd v1.5.2PL0 Copyright (c) Steve Scherf et al.
# Submitted via: CDex 1.50
#
DISCID=2109fb03
DTITLE=Charles Lloyd - Manhattan Stories CD01
DYEAR=1900
DGENRE=Jazz
TTITLE0=Sweet Georgia Bright
TTITLE1=How Can I Tell You
TTITLE2=Lady Gabor
EXTD=
EXTT0=
EXTT1=
EXTT2=
PLAYORDER=
